<?xml version="1.0" encoding="UTF-8"?>
<!DOCTYPE svg PUBLIC "-//W3C//DTD SVG 1.1//EN" "http://www.w3.org/Graphics/SVG/1.1/DTD/svg11.dtd">
<!-- Creator: CorelDRAW 2019 (64-Bit Evaluation Version) -->
<svg xmlns="http://www.w3.org/2000/svg" xml:space="preserve" width="3.93701in" height="3.93701in" version="1.1" style="shape-rendering:geometricPrecision; text-rendering:geometricPrecision; image-rendering:optimizeQuality; fill-rule:evenodd; clip-rule:evenodd"
viewBox="0 0 3937.01 3937.01"
 xmlns:xlink="http://www.w3.org/1999/xlink"
 xmlns:xodm="http://www.corel.com/coreldraw/odm/2003">
 <defs>
  <style type="text/css">
   <![CDATA[
    .str1 {stroke:#4F2900;stroke-width:20.83;stroke-miterlimit:2.61313}
    .str0 {stroke:black;stroke-width:6.94;stroke-miterlimit:2.61313}
    .fil9 {fill:black}
    .fil0 {fill:#1A1A1A}
    .fil5 {fill:#543963}
    .fil11 {fill:#7ADC76}
    .fil8 {fill:#8F552A}
    .fil4 {fill:#DBA644}
    .fil1 {fill:#E6E6E6}
    .fil7 {fill:#F78A49}
    .fil2 {fill:#FFC66D}
    .fil6 {fill:#FFC66D}
    .fil3 {fill:#FFCD36}
    .fil12 {fill:#4F2900;fill-rule:nonzero}
    .fil10 {fill:#B3B3B3;fill-rule:nonzero}
   ]]>
  </style>
 </defs>
 <g id="Layer_x0020_1">
  <metadata id="CorelCorpID_0Corel-Layer"/>
  <rect class="fil0 str0" x="-1.5" y="1.5" width="3937.01" height="3937.01" rx="196.85" ry="196.85"/>
  <path class="fil1" d="M1003.77 2083.38l-41.14 9.69c-26.97,45.84 -34.98,55.7 -36.11,117.83l0 147.28 -0.47 131.54 1.57 107.19 -5.36 215.53 3.43 411.12 2084.08 0 3.43 -411.12 -5.36 -215.53c3.57,-96.91 0.97,-194.46 1.3,-291.56 0.37,-111.49 23.55,-187.85 -77.44,-221.97l-876.61 -7.78 -174.7 0 -876.61 7.78z"/>
  <path class="fil2" d="M2070.72 1659.16c-24.91,141.72 -180.22,143.83 -208.89,0l208.89 0zm-830.89 -91.47l19.85 151.99 66.78 182.3c41.48,76.26 90.92,116.58 118.3,177.49l522.97 -3.87c-44.49,-48.55 -249.72,-67.43 -191.65,-142.43 64.41,-64.65 75.28,39.66 191.65,39.66 116.37,0 127.24,-104.31 191.65,-39.66 58.07,74.99 -152.97,93.52 -197.46,142.07l531.46 4.24 -0.64 -4.89c32.74,-70.99 151.96,-153.85 198.83,-404.73l2.72 -112.67 -12.31 -211.54 -85.73 -4.61 -9.96 -97.22c-172.69,-4.59 -445.78,27.77 -587.06,-38.59 -230.65,-108.32 -203.83,-282.35 -253.73,-376.26 -169.06,6.85 -272.11,93.35 -333.02,184.96 -87.25,131.2 -85.44,173.82 -85.17,349.09l-85.65 11.15 -1.83 193.51z"/>
  <path class="fil3" d="M992.98 3429.53l1949.49 0c46.35,-34.73 58.19,-34.19 65.65,-106.19l-2080.78 0c7.46,72 19.3,71.46 65.65,106.19z"/>
  <polygon class="fil4" points="926.53,3317.75 927.34,3323.34 3008.12,3323.34 3008.93,3317.75 3009.77,3223.56 925.69,3223.56 "/>
  <path class="fil5" d="M992.98 3429.53c-46.35,-34.73 -58.19,-34.19 -65.65,-106.19l-0.81 -5.59c-262.94,-41.62 -293.17,-436.21 -4.26,-505.31l5.36 -215.53c-203.92,80.41 -424.03,191.62 -417.58,458.64 3.19,132.35 72.3,235.82 140.38,289.3 98.2,77.13 190.89,85.97 342.56,84.69z"/>
  <path class="fil5" d="M3013.19 2812.44c288.9,69.09 258.68,463.69 -4.26,505.31l-0.81 5.59c-7.46,72 -19.3,71.46 -65.65,106.19 153.31,1.3 255.31,-12.2 350.29,-90.84 67.44,-55.84 133.5,-162.82 132.78,-297.24 -1.38,-256.81 -217.61,-365.64 -417.71,-444.55l5.36 215.53z"/>
  <path class="fil6" d="M3009.77 3223.56l-0.84 94.19c262.94,-41.62 293.17,-436.21 4.26,-505.31l-3.43 411.12z"/>
  <path class="fil6" d="M926.53 3317.75l-0.84 -94.19 -3.43 -411.12c-288.9,69.09 -258.68,463.69 4.26,505.31z"/>
  <path class="fil7" d="M2159.37 1933.17c-64.41,-64.65 -75.28,39.66 -191.65,39.66 -116.37,0 -127.24,-104.31 -191.65,-39.66 -142.75,198.88 511.11,179.97 383.29,0z"/>
  <path class="fil8" d="M1342.59 848.1c-65.58,181.93 -143.75,349.99 -105.81,549.86 14.41,69.22 -11.81,-24.13 5.55,-26.8l84.98 -8.13c-0.27,-175.27 -2.07,-217.89 85.17,-349.09 60.91,-91.61 163.96,-178.11 333.02,-184.96 49.9,93.91 23.08,267.94 253.73,376.26 141.28,66.35 414.38,34 587.06,38.59l7.18 111.17 91.89 4.95c42.23,7.52 -12.06,-312.4 -36.15,-375.34 -77.17,-201.56 -265.46,-375.96 -471.91,-439.71 -230.59,-70.75 -742.8,48.22 -834.72,303.22z"/>
  <path class="fil9" d="M1575.22 1398.88c-82.93,30.95 -68.95,260.51 57.76,210.26 70.82,-28.08 70.03,-257.95 -57.76,-210.26z"/>
  <path class="fil7" d="M2071.5 1659.16l-208.89 0c28.67,143.83 183.98,141.72 208.89,0z"/>
  <path class="fil9" d="M2305.95 1398.88c-82.93,30.95 -68.95,260.51 57.76,210.26 70.82,-28.08 70.03,-257.95 -57.76,-210.26z"/>
  <path class="fil10" d="M1941.89 2761.31l0 -79.07 -60.9 -94.34c-5.34,-8.54 -9.11,-15.15 -11.32,-19.91 -2.2,-4.76 -3.31,-8.88 -3.31,-12.42 0,-5.75 2.26,-10.74 6.73,-14.98 4.47,-4.18 9.99,-6.27 16.61,-6.27 6.91,0 12.13,1.98 15.73,5.87 3.54,3.89 8.88,11.67 16.02,23.34l46.62 75.65 47.14 -75.65c2.79,-4.65 5.17,-8.54 7.14,-11.73 1.92,-3.13 4.01,-6.09 6.39,-8.88 2.32,-2.79 4.88,-4.94 7.72,-6.39 2.84,-1.45 6.27,-2.21 10.39,-2.21 6.33,0 11.61,2.09 15.85,6.21 4.3,4.12 6.39,8.94 6.39,14.34 0,4.41 -1.05,8.88 -3.19,13.29 -2.15,4.41 -5.87,10.51 -11.09,18.35l-62.41 95.73 0 79.07c0,10.33 -2.38,18 -7.14,23.11 -4.76,5.11 -10.86,7.67 -18.17,7.67 -7.49,0 -13.59,-2.5 -18.23,-7.55 -4.65,-5.05 -6.97,-12.77 -6.97,-23.22z"/>
  <rect class="fil11" x="310.54" y="1551.26" width="606.17" height="108.76" rx="281.11" ry="587.26"/>
  <rect class="fil11" x="310.54" y="1128.47" width="694.7" height="108.66" rx="322.17" ry="586.72"/>
  <rect class="fil11" x="310.54" y="282.79" width="3281.27" height="108.66" rx="1521.67" ry="586.72"/>
  <rect class="fil11" x="310.54" y="705.63" width="835.33" height="108.66" rx="387.38" ry="586.72"/>
  <rect class="fil11" x="2985.64" y="1551.26" width="606.17" height="108.76" rx="281.11" ry="587.26"/>
  <rect class="fil11" x="2897.1" y="1128.47" width="694.7" height="108.66" rx="322.17" ry="586.72"/>
  <rect class="fil11" x="2756.48" y="705.63" width="835.33" height="108.66" rx="387.38" ry="586.72"/>
 </g>
 <g id="__x0023_Layer_x0020_1">
  <metadata id="CorelCorpID_1Corel-Layer"/>
  <path class="fil12 str1" d="M1223.3 1442.69c14.95,9.35 23.48,21.99 28.76,38.36 13.67,42.4 28.15,84.54 42.22,126.84 24.15,72.6 75.98,114.09 149.02,129.87 89.17,19.25 177.78,8.55 265.39,-10.76 67.03,-14.8 119.16,-61.7 143.05,-128.55 16.74,-46.81 30.04,-84.58 44.8,-132.08 8.66,-27.87 20.8,-38.94 49.58,-41.85 8.73,-0.87 17.61,-0.69 26.41,-0.63 42.07,0.34 55.04,12.11 66.5,52.77 12.54,44.5 22.49,90.37 42.18,132.16 30.28,64.27 70.73,93.84 141.2,117.35 53.76,17.94 104.48,24.7 161.3,24.7 43.55,0 92.36,-6.56 132.76,-20.67 52.93,-18.44 93.89,-50.85 113.91,-104.68 18.57,-49.93 34.8,-100.71 53.28,-150.67 3.8,-10.33 11.21,-21.68 20.27,-27.15 14.93,-9.06 19.17,-21.07 19.17,-36.54 0.02,-9.4 -1.11,-18.88 -0.22,-28.15 1.91,-19.14 -7.02,-27.67 -25.18,-30.84 -72.77,-12.71 -144.97,-30.05 -218.19,-38.28 -146.88,-16.52 -291.56,-9.43 -430.5,50.54 -53.9,23.24 -112.39,22.25 -166.84,-0.34 -98.21,-40.72 -199.74,-59.84 -303.55,-56.8 -108.02,-2.17 -211.38,15.66 -314.28,38.38 -58,12.81 -63.76,19.01 -53.48,77.53 1.24,7.13 6.44,15.71 12.43,19.47zm894.83 -74.34l0 0c46.46,-23.39 96.55,-32.55 147.54,-37.69 106.94,-10.78 212.34,-2.94 315.07,29.97 48,15.35 64.4,37.75 64.13,88.47 -0.37,66.19 -11.05,130.53 -41.53,190.43 -15.44,30.35 -39.67,50.25 -70.8,62.61 -47.14,18.68 -96.5,24.35 -149.31,25.21 -60.2,-1.08 -121.16,-11.29 -179.51,-35.38 -31.22,-12.91 -57.04,-32.3 -75.47,-61.03 -34.78,-54.22 -58.55,-112.23 -61.07,-177.52 -1.49,-39.31 15.75,-67.38 50.93,-85.08zm-830.31 75.9l0 0c1.13,-45.76 17.04,-67.38 60.28,-82.49 76.85,-26.85 156.85,-33.73 238.41,-36.15 67.92,2.26 136.36,6.95 201.76,31.29 9.32,3.48 18.32,7.81 27.26,12.23 35.48,17.49 52.33,46.66 49.85,85.6 -4.87,76.01 -31.2,144.15 -81.72,201.42 -25.3,28.66 -61.38,40.4 -97.13,50.64 -88.28,25.3 -176.81,28.18 -265.77,2.88 -50.54,-14.36 -85.27,-45.21 -103.31,-94.7 -20.09,-55.16 -31.1,-111.96 -29.62,-170.7z"/>
 </g>
</svg>
